<svg xmlns="http://www.w3.org/2000/svg" width="380" height="84" viewBox="0 0 380 84" role="img" aria-label="Install for Chrome — go to Chrome Web Store">
  <title>Install for Chrome — go to Chrome Web Store</title>
  <rect x="1" y="1" width="378" height="82" rx="14" fill="#17191C" stroke="#3D444D" stroke-width="2"/>
  <g transform="translate(26,20) scale(1.8333)">
    <path fill="#4285F4" d="M12 0C8.21 0 4.831 1.757 2.632 4.501l3.953 6.848A5.454 5.454 0 0 1 12 6.545h10.691A12 12 0 0 0 12 0zM1.931 5.47A11.943 11.943 0 0 0 0 12c0 6.012 4.42 10.991 10.189 11.864l3.953-6.847a5.45 5.45 0 0 1-6.865-2.29zm13.342 2.166a5.446 5.446 0 0 1 1.45 7.09l.002.001h-.002l-5.344 9.257c.206.01.413.016.621.016 6.627 0 12-5.373 12-12 0-1.54-.29-3.011-.818-4.364zM12 16.364a4.364 4.364 0 1 1 0-8.728 4.364 4.364 0 0 1 0 8.728Z"/>
  </g>
  <text x="92" y="36" font-family="'Segoe UI', system-ui, -apple-system, Helvetica, Arial, sans-serif" font-size="11" font-weight="600" letter-spacing="0.8" fill="#8B949E">GO TO CHROME WEB STORE</text>
  <text x="92" y="62" font-family="'Segoe UI', system-ui, -apple-system, Helvetica, Arial, sans-serif" font-size="23" font-weight="700" fill="#FFFFFF">Install for Chrome</text>
</svg>
